<svg width="213" height="76" viewBox="0 0 213 76" fill="none" xmlns="http://www.w3.org/2000/svg">
<rect x="0.9" y="0.9" width="210.6" height="73.8" rx="9.9" fill="black"/>
<rect x="0.9" y="0.9" width="210.6" height="73.8" rx="9.9" stroke="#A6A6A6" stroke-width="1.8"/>
<path d="M49.5681 39.1736C49.59 37.5178 50.0405 35.8942 50.8777 34.4541C51.7149 33.0139 52.9117 31.8039 54.3566 30.9366C53.4387 29.6567 52.2277 28.6034 50.8199 27.8604C49.4121 27.1173 47.8462 26.705 46.2466 26.6561C42.8344 26.3064 39.5264 28.6495 37.7876 28.6495C36.0151 28.6495 33.338 26.6908 30.4551 26.7487C28.5904 26.8076 26.7731 27.337 25.1802 28.2853C23.5874 29.2337 22.2733 30.5688 21.3661 32.1604C17.4363 38.8031 20.3676 48.5657 24.1321 53.9352C26.0155 56.5644 28.2168 59.5014 31.097 59.3973C33.9155 59.2831 34.9682 57.6426 38.3704 57.6426C41.741 57.6426 42.7285 59.3973 45.6673 59.3311C48.6917 59.2831 50.5972 56.6901 52.4146 54.0359C53.7678 52.1625 54.8092 50.0919 55.5 47.9009C53.7429 47.1753 52.2435 45.9609 51.1886 44.4089C50.1337 42.857 49.5701 41.0362 49.5681 39.1736Z" fill="white"/>
<path d="M44.0179 23.1248C45.6669 21.1922 46.4793 18.7081 46.2826 16.2C43.7633 16.4583 41.4361 17.6339 39.7648 19.4924C38.9477 20.4003 38.3218 21.4566 37.923 22.6008C37.5243 23.745 37.3604 24.9548 37.4408 26.1609C38.7009 26.1735 39.9475 25.9069 41.0868 25.381C42.2261 24.8551 43.2282 24.0837 44.0179 23.1248Z" fill="white"/>
<path d="M74.5827 28.8H71.7509V27.5344H74.4878C75.4634 27.5344 76.2702 27.3472 76.9083 26.9727C77.5517 26.5983 78.0315 26.0631 78.3479 25.367C78.6644 24.6709 78.8226 23.843 78.8226 22.8832C78.8226 21.934 78.667 21.1166 78.3559 20.431C78.0447 19.7402 77.578 19.2102 76.9558 18.8411C76.3388 18.4667 75.5688 18.2795 74.646 18.2795H71.6876V17.0139H74.7409C75.8853 17.0139 76.8635 17.2485 77.6756 17.7179C78.493 18.1872 79.1179 18.8622 79.5503 19.7429C79.9827 20.6183 80.1989 21.665 80.1989 22.8832C80.1989 24.1119 79.9801 25.1692 79.5424 26.0552C79.1047 26.9358 78.4666 27.6135 77.6281 28.0881C76.7949 28.5627 75.7798 28.8 74.5827 28.8ZM72.3679 17.0139V28.8H70.944V17.0139H72.3679ZM85.2298 28.9898C84.4335 28.9898 83.7348 28.8 83.1336 28.4203C82.5324 28.0406 82.0631 27.508 81.7256 26.8224C81.3934 26.1369 81.2272 25.3406 81.2272 24.4336C81.2272 23.5107 81.3934 22.7065 81.7256 22.021C82.0631 21.3302 82.5324 20.7949 83.1336 20.4152C83.7348 20.0355 84.4335 19.8457 85.2298 19.8457C86.0313 19.8457 86.7327 20.0355 87.3339 20.4152C87.9351 20.7949 88.4044 21.3302 88.7419 22.021C89.0794 22.7065 89.2481 23.5107 89.2481 24.4336C89.2481 25.3406 89.0794 26.1369 88.7419 26.8224C88.4044 27.508 87.9351 28.0406 87.3339 28.4203C86.7327 28.8 86.0313 28.9898 85.2298 28.9898ZM85.2298 27.7717C85.8415 27.7717 86.3425 27.6161 86.7327 27.305C87.1229 26.9938 87.413 26.5851 87.6028 26.0789C87.7927 25.5674 87.8876 25.0189 87.8876 24.4336C87.8876 23.8377 87.7927 23.284 87.6028 22.7724C87.413 22.2609 87.1229 21.8496 86.7327 21.5385C86.3425 21.2221 85.8415 21.0639 85.2298 21.0639C84.6286 21.0639 84.1329 21.2221 83.7427 21.5385C83.3524 21.8496 83.0624 22.2609 82.8726 22.7724C82.6827 23.284 82.5878 23.8377 82.5878 24.4336C82.5878 25.0189 82.6827 25.5674 82.8726 26.0789C83.0624 26.5851 83.3524 26.9938 83.7427 27.305C84.1329 27.6161 84.6286 27.7717 85.2298 27.7717ZM92.254 28.8L89.5645 19.9564H90.9884L92.9026 26.7275H92.9976L94.8802 19.9564H96.3356L98.1866 26.7117H98.2815L100.196 19.9564H101.62L98.9302 28.8H97.6013L95.6554 22.0131H95.5288L93.5829 28.8H92.254ZM104.008 23.4844V28.8H102.664V19.9564H103.961V21.3486H104.088C104.293 20.8951 104.607 20.5312 105.029 20.257C105.451 19.9828 105.997 19.8457 106.666 19.8457C107.262 19.8457 107.784 19.967 108.233 20.2096C108.681 20.4521 109.029 20.8213 109.277 21.317C109.53 21.8074 109.656 22.4297 109.656 23.1838V28.8H108.312V23.2787C108.312 22.5879 108.13 22.0474 107.766 21.6571C107.402 21.2616 106.906 21.0639 106.279 21.0639C105.846 21.0639 105.459 21.1588 105.116 21.3486C104.773 21.5385 104.502 21.8127 104.301 22.1713C104.106 22.5299 104.008 22.9676 104.008 23.4844ZM112.741 17.0139V28.8H111.397V17.0139H112.741ZM118.057 28.9898C117.261 28.9898 116.562 28.8 115.961 28.4203C115.36 28.0406 114.89 27.508 114.553 26.8224C114.221 26.1369 114.054 25.3406 114.054 24.4336C114.054 23.5107 114.221 22.7065 114.553 22.021C114.89 21.3302 115.36 20.7949 115.961 20.4152C116.562 20.0355 117.261 19.8457 118.057 19.8457C118.858 19.8457 119.56 20.0355 120.161 20.4152C120.762 20.7949 121.232 21.3302 121.569 22.021C121.907 22.7065 122.075 23.5107 122.075 24.4336C122.075 25.3406 121.907 26.1369 121.569 26.8224C121.232 27.508 120.762 28.0406 120.161 28.4203C119.56 28.8 118.858 28.9898 118.057 28.9898ZM118.057 27.7717C118.669 27.7717 119.17 27.6161 119.56 27.305C119.95 26.9938 120.24 26.5851 120.43 26.0789C120.62 25.5674 120.715 25.0189 120.715 24.4336C120.715 23.8377 120.62 23.284 120.43 22.7724C120.24 22.2609 119.95 21.8496 119.56 21.5385C119.17 21.2221 118.669 21.0639 118.057 21.0639C117.456 21.0639 116.96 21.2221 116.57 21.5385C116.18 21.8496 115.89 22.2609 115.7 22.7724C115.51 23.284 115.415 23.8377 115.415 24.4336C115.415 25.0189 115.51 25.5674 115.7 26.0789C115.89 26.5851 116.18 26.9938 116.57 27.305C116.96 27.6161 117.456 27.7717 118.057 27.7717ZM125.983 29.0057C125.424 29.0057 124.915 28.9002 124.456 28.6892C123.997 28.473 123.634 28.1619 123.365 27.7558C123.096 27.3498 122.961 26.8594 122.961 26.2846C122.961 25.7783 123.061 25.3696 123.262 25.0585C123.462 24.7421 123.729 24.4942 124.061 24.3149C124.398 24.1304 124.767 23.9932 125.168 23.9036C125.574 23.814 125.983 23.7428 126.394 23.69C126.932 23.6215 127.367 23.5687 127.699 23.5318C128.037 23.4949 128.282 23.4316 128.435 23.342C128.593 23.2523 128.672 23.0994 128.672 22.8832V22.8357C128.672 22.2715 128.517 21.8338 128.206 21.5226C127.9 21.2062 127.433 21.048 126.806 21.048C126.162 21.048 125.656 21.1904 125.287 21.4752C124.918 21.7547 124.659 22.0553 124.512 22.3769L123.214 21.9182C123.446 21.3803 123.755 20.961 124.14 20.6604C124.53 20.3599 124.952 20.1489 125.405 20.0276C125.864 19.9063 126.315 19.8457 126.758 19.8457C127.043 19.8457 127.37 19.88 127.739 19.9485C128.108 20.0118 128.467 20.1489 128.815 20.3599C129.168 20.5655 129.458 20.8793 129.685 21.3012C129.917 21.7178 130.033 22.2767 130.033 22.9781V28.8H128.672V27.5976H128.609C128.519 27.7875 128.366 27.9932 128.15 28.2146C127.934 28.4308 127.647 28.6181 127.288 28.7763C126.935 28.9292 126.5 29.0057 125.983 29.0057ZM126.189 27.7875C126.726 27.7875 127.18 27.682 127.549 27.4711C127.918 27.2601 128.198 26.9886 128.388 26.6563C128.577 26.3188 128.672 25.9682 128.672 25.6043V24.3545C128.614 24.423 128.488 24.4863 128.293 24.5443C128.103 24.5971 127.881 24.6445 127.628 24.6867C127.38 24.7289 127.138 24.7658 126.9 24.7974C126.663 24.8238 126.473 24.8449 126.331 24.8607C125.978 24.9082 125.648 24.9847 125.342 25.0901C125.036 25.1903 124.788 25.3406 124.599 25.541C124.414 25.7414 124.322 26.0156 124.322 26.3637C124.322 26.833 124.496 27.189 124.844 27.4315C125.197 27.6688 125.645 27.7875 126.189 27.7875ZM135.095 28.9898C134.357 28.9898 133.706 28.8026 133.142 28.4282C132.577 28.0538 132.137 27.5238 131.821 26.8383C131.504 26.1474 131.346 25.3353 131.346 24.4019C131.346 23.4738 131.504 22.6696 131.821 21.9893C132.142 21.3038 132.585 20.7765 133.15 20.4073C133.714 20.0329 134.368 19.8457 135.111 19.8457C135.691 19.8457 136.147 19.9406 136.48 20.1305C136.817 20.3203 137.076 20.5365 137.255 20.7791C137.434 21.0164 137.574 21.2115 137.674 21.3644H137.785V17.0139H139.13V28.8H137.832V27.4394H137.674C137.574 27.5976 137.432 27.8007 137.247 28.0485C137.062 28.2911 136.799 28.5099 136.456 28.7051C136.118 28.8949 135.665 28.9898 135.095 28.9898ZM135.269 27.7717C135.818 27.7717 136.279 27.6293 136.654 27.3445C137.028 27.0545 137.313 26.6563 137.508 26.1501C137.703 25.6386 137.801 25.0506 137.801 24.3861C137.801 23.7217 137.706 23.1416 137.516 22.6459C137.326 22.1449 137.041 21.7573 136.662 21.4831C136.287 21.2036 135.823 21.0639 135.269 21.0639C134.7 21.0639 134.225 21.2115 133.846 21.5068C133.466 21.8021 133.181 22.2003 132.991 22.7013C132.801 23.2022 132.707 23.7639 132.707 24.3861C132.707 25.0137 132.801 25.5832 132.991 26.0947C133.186 26.6062 133.474 27.0149 133.854 27.3208C134.233 27.6214 134.705 27.7717 135.269 27.7717ZM148.242 28.9898C147.446 28.9898 146.747 28.8 146.146 28.4203C145.545 28.0406 145.075 27.508 144.738 26.8224C144.406 26.1369 144.24 25.3406 144.24 24.4336C144.24 23.5107 144.406 22.7065 144.738 22.021C145.075 21.3302 145.545 20.7949 146.146 20.4152C146.747 20.0355 147.446 19.8457 148.242 19.8457C149.044 19.8457 149.745 20.0355 150.346 20.4152C150.947 20.7949 151.417 21.3302 151.754 22.021C152.092 22.7065 152.26 23.5107 152.26 24.4336C152.26 25.3406 152.092 26.1369 151.754 26.8224C151.417 27.508 150.947 28.0406 150.346 28.4203C149.745 28.8 149.044 28.9898 148.242 28.9898ZM148.242 27.7717C148.854 27.7717 149.355 27.6161 149.745 27.305C150.135 26.9938 150.425 26.5851 150.615 26.0789C150.805 25.5674 150.9 25.0189 150.9 24.4336C150.9 23.8377 150.805 23.284 150.615 22.7724C150.425 22.2609 150.135 21.8496 149.745 21.5385C149.355 21.2221 148.854 21.0639 148.242 21.0639C147.641 21.0639 147.145 21.2221 146.755 21.5385C146.365 21.8496 146.075 22.2609 145.885 22.7724C145.695 23.284 145.6 23.8377 145.6 24.4336C145.6 25.0189 145.695 25.5674 145.885 26.0789C146.075 26.5851 146.365 26.9938 146.755 27.305C147.145 27.6161 147.641 27.7717 148.242 27.7717ZM154.918 23.4844V28.8H153.574V19.9564H154.871V21.3486H154.997C155.203 20.8951 155.517 20.5312 155.939 20.257C156.361 19.9828 156.906 19.8457 157.576 19.8457C158.172 19.8457 158.694 19.967 159.142 20.2096C159.591 20.4521 159.939 20.8213 160.186 21.317C160.44 21.8074 160.566 22.4297 160.566 23.1838V28.8H159.221V23.2787C159.221 22.5879 159.039 22.0474 158.676 21.6571C158.312 21.2616 157.816 21.0639 157.188 21.0639C156.756 21.0639 156.368 21.1588 156.026 21.3486C155.683 21.5385 155.411 21.8127 155.211 22.1713C155.016 22.5299 154.918 22.9676 154.918 23.4844ZM169.932 19.9564V21.1113H165.36V19.9564H169.932ZM166.689 17.8523H168.033V26.2687C168.033 26.7275 168.128 27.065 168.318 27.2812C168.508 27.4922 168.808 27.5976 169.22 27.5976C169.309 27.5976 169.402 27.5924 169.497 27.5818C169.597 27.5713 169.705 27.5555 169.821 27.5344L170.106 28.7525C169.979 28.8 169.824 28.8369 169.639 28.8633C169.46 28.8949 169.278 28.9107 169.093 28.9107C168.381 28.9107 167.801 28.6998 167.353 28.2779C166.91 27.856 166.689 27.3076 166.689 26.6326V17.8523ZM172.764 23.4844V28.8H171.419V17.0139H172.764V21.3486H172.89C173.096 20.8898 173.404 20.526 173.816 20.257C174.232 19.9828 174.789 19.8457 175.485 19.8457C176.086 19.8457 176.613 19.967 177.067 20.2096C177.52 20.4469 177.874 20.8134 178.127 21.3091C178.38 21.7995 178.506 22.4244 178.506 23.1838V28.8H177.146V23.2787C177.146 22.5721 176.964 22.0263 176.6 21.6413C176.236 21.2563 175.733 21.0639 175.089 21.0639C174.641 21.0639 174.243 21.1588 173.895 21.3486C173.547 21.5385 173.27 21.8127 173.064 22.1713C172.864 22.5299 172.764 22.9676 172.764 23.4844ZM183.949 28.9898C183.1 28.9898 182.364 28.8 181.742 28.4203C181.125 28.0406 180.65 27.5106 180.318 26.8304C179.986 26.1448 179.819 25.3512 179.819 24.4494C179.819 23.5424 179.983 22.7434 180.31 22.0526C180.637 21.3618 181.096 20.8213 181.686 20.431C182.282 20.0408 182.978 19.8457 183.775 19.8457C184.233 19.8457 184.689 19.9222 185.143 20.0751C185.596 20.228 186.008 20.4759 186.377 20.8186C186.751 21.1614 187.049 21.6149 187.271 22.1792C187.492 22.7434 187.603 23.4369 187.603 24.2596V24.8449H180.784V23.6742H186.867L186.242 24.1172C186.242 23.5266 186.15 23.0018 185.966 22.5431C185.781 22.0843 185.504 21.723 185.135 21.4594C184.771 21.1957 184.318 21.0639 183.775 21.0639C183.231 21.0639 182.765 21.1983 182.374 21.4673C181.989 21.7309 181.694 22.0764 181.488 22.5035C181.283 22.9307 181.18 23.3894 181.18 23.8799V24.6551C181.18 25.3248 181.296 25.8917 181.528 26.3557C181.76 26.8198 182.084 27.1731 182.501 27.4157C182.918 27.653 183.4 27.7717 183.949 27.7717C184.302 27.7717 184.624 27.7216 184.914 27.6214C185.204 27.5159 185.454 27.3603 185.665 27.1547C185.876 26.9437 186.037 26.6853 186.148 26.3795L187.461 26.7592C187.324 27.2021 187.091 27.5924 186.765 27.9299C186.443 28.2621 186.042 28.5231 185.562 28.713C185.082 28.8975 184.544 28.9898 183.949 28.9898Z" fill="white"/>
<path d="M74.1187 56.8H70.0546L77.4515 35.8469H82.1202L89.503 56.8H85.453L79.8562 40.15H79.6874L74.1187 56.8ZM74.2593 48.5875H85.2983V51.625H74.2593V48.5875ZM90.1898 62.6781V41.0781H93.818V43.6797H94.043C94.2305 43.3047 94.4977 42.9016 94.8445 42.4703C95.1914 42.0297 95.6602 41.6547 96.2508 41.3453C96.8508 41.0359 97.6148 40.8812 98.543 40.8812C99.7523 40.8812 100.845 41.1906 101.82 41.8094C102.795 42.4281 103.568 43.3375 104.14 44.5375C104.721 45.7375 105.012 47.2141 105.012 48.9672C105.012 50.6922 104.73 52.1594 104.168 53.3687C103.605 54.5781 102.832 55.5016 101.848 56.1391C100.873 56.7672 99.7664 57.0812 98.5289 57.0812C97.6383 57.0812 96.893 56.9312 96.293 56.6312C95.7023 56.3219 95.2242 55.9562 94.8586 55.5344C94.5023 55.1031 94.2305 54.6953 94.043 54.3109H93.8883V62.6781H90.1898ZM97.5164 54.0437C98.332 54.0437 99.0117 53.8234 99.5555 53.3828C100.109 52.9422 100.526 52.3375 100.807 51.5687C101.088 50.8 101.229 49.9281 101.229 48.9531C101.229 47.9781 101.088 47.1109 100.807 46.3516C100.526 45.5922 100.113 44.9969 99.5695 44.5656C99.0258 44.1344 98.3414 43.9187 97.5164 43.9187C96.7195 43.9187 96.0445 44.125 95.4914 44.5375C94.9477 44.95 94.5305 45.5359 94.2398 46.2953C93.9586 47.0453 93.818 47.9312 93.818 48.9531C93.818 49.9656 93.9586 50.8562 94.2398 51.625C94.5305 52.3844 94.9523 52.9797 95.5055 53.4109C96.0586 53.8328 96.7289 54.0437 97.5164 54.0437ZM106.219 62.6781V41.0781H109.847V43.6797H110.072C110.259 43.3047 110.527 42.9016 110.874 42.4703C111.22 42.0297 111.689 41.6547 112.28 41.3453C112.88 41.0359 113.644 40.8812 114.572 40.8812C115.781 40.8812 116.874 41.1906 117.849 41.8094C118.824 42.4281 119.597 43.3375 120.169 44.5375C120.75 45.7375 121.041 47.2141 121.041 48.9672C121.041 50.6922 120.759 52.1594 120.197 53.3687C119.634 54.5781 118.861 55.5016 117.877 56.1391C116.902 56.7672 115.795 57.0812 114.558 57.0812C113.667 57.0812 112.922 56.9312 112.322 56.6312C111.731 56.3219 111.253 55.9562 110.888 55.5344C110.531 55.1031 110.259 54.6953 110.072 54.3109H109.917V62.6781H106.219ZM113.545 54.0437C114.361 54.0437 115.041 53.8234 115.584 53.3828C116.138 52.9422 116.555 52.3375 116.836 51.5687C117.117 50.8 117.258 49.9281 117.258 48.9531C117.258 47.9781 117.117 47.1109 116.836 46.3516C116.555 45.5922 116.142 44.9969 115.599 44.5656C115.055 44.1344 114.37 43.9187 113.545 43.9187C112.749 43.9187 112.074 44.125 111.52 44.5375C110.977 44.95 110.559 45.5359 110.269 46.2953C109.988 47.0453 109.847 47.9312 109.847 48.9531C109.847 49.9656 109.988 50.8562 110.269 51.625C110.559 52.3844 110.981 52.9797 111.534 53.4109C112.088 53.8328 112.758 54.0437 113.545 54.0437ZM135.028 57.1234C133.397 57.1234 131.982 56.8703 130.782 56.3641C129.582 55.8578 128.644 55.1219 127.969 54.1562C127.294 53.1812 126.928 52 126.872 50.6125H130.613C130.669 51.3437 130.894 51.9531 131.288 52.4406C131.682 52.9187 132.197 53.2797 132.835 53.5234C133.482 53.7672 134.199 53.8891 134.986 53.8891C135.811 53.8891 136.538 53.7625 137.166 53.5094C137.794 53.2562 138.286 52.9047 138.642 52.4547C138.999 52.0047 139.177 51.4797 139.177 50.8797C139.177 50.3359 139.017 49.8906 138.699 49.5437C138.38 49.1875 137.939 48.8875 137.377 48.6437C136.814 48.4 136.153 48.1844 135.394 47.9969L133.017 47.3781C131.292 46.9375 129.933 46.2672 128.939 45.3672C127.946 44.4578 127.449 43.2484 127.449 41.7391C127.449 40.5016 127.782 39.4234 128.447 38.5047C129.113 37.5766 130.022 36.8547 131.175 36.3391C132.338 35.8234 133.65 35.5656 135.113 35.5656C136.603 35.5656 137.911 35.8234 139.036 36.3391C140.161 36.8547 141.042 37.5672 141.68 38.4766C142.317 39.3859 142.65 40.4312 142.678 41.6125H139.008C138.914 40.7125 138.516 40.0187 137.813 39.5312C137.119 39.0344 136.205 38.7859 135.071 38.7859C134.283 38.7859 133.603 38.9031 133.032 39.1375C132.469 39.3719 132.038 39.6953 131.738 40.1078C131.438 40.5203 131.288 40.9891 131.288 41.5141C131.288 42.0953 131.461 42.5734 131.808 42.9484C132.164 43.3141 132.614 43.6094 133.158 43.8344C133.711 44.0594 134.274 44.2469 134.846 44.3969L136.8 44.8891C137.588 45.0766 138.347 45.3297 139.078 45.6484C139.81 45.9578 140.466 46.3516 141.047 46.8297C141.638 47.2984 142.102 47.8703 142.439 48.5453C142.786 49.2203 142.96 50.0125 142.96 50.9219C142.96 52.1406 142.646 53.2187 142.017 54.1562C141.389 55.0844 140.485 55.8109 139.303 56.3359C138.122 56.8609 136.697 57.1234 135.028 57.1234ZM152.07 41.0781V43.9469H143.056V41.0781H152.07ZM145.264 37.3375H148.962V52.075C148.962 52.6937 149.098 53.1531 149.37 53.4531C149.642 53.7437 150.073 53.8891 150.664 53.8891C150.823 53.8891 151.001 53.875 151.198 53.8469C151.395 53.8187 151.573 53.7859 151.732 53.7484L152.365 56.6453C151.971 56.7672 151.573 56.8562 151.17 56.9125C150.767 56.9781 150.364 57.0109 149.961 57.0109C148.498 57.0109 147.35 56.6266 146.515 55.8578C145.681 55.0797 145.264 54.0203 145.264 52.6797V37.3375ZM159.943 57.1094C158.405 57.1094 157.074 56.7719 155.949 56.0969C154.824 55.4219 153.952 54.475 153.333 53.2562C152.724 52.0375 152.419 50.6219 152.419 49.0094C152.419 47.3875 152.724 45.9672 153.333 44.7484C153.952 43.5203 154.824 42.5687 155.949 41.8937C157.074 41.2187 158.405 40.8812 159.943 40.8812C161.48 40.8812 162.811 41.2187 163.936 41.8937C165.061 42.5687 165.933 43.5203 166.552 44.7484C167.171 45.9672 167.48 47.3875 167.48 49.0094C167.48 50.6219 167.171 52.0375 166.552 53.2562C165.933 54.475 165.061 55.4219 163.936 56.0969C162.811 56.7719 161.48 57.1094 159.943 57.1094ZM159.943 54.1281C160.796 54.1281 161.499 53.9031 162.052 53.4531C162.605 52.9937 163.018 52.375 163.29 51.5969C163.571 50.8187 163.711 49.9562 163.711 49.0094C163.711 48.0437 163.571 47.1719 163.29 46.3937C163.018 45.6156 162.605 45.0016 162.052 44.5516C161.499 44.0922 160.796 43.8625 159.943 43.8625C159.108 43.8625 158.41 44.0922 157.847 44.5516C157.285 45.0016 156.863 45.6156 156.582 46.3937C156.31 47.1719 156.174 48.0437 156.174 49.0094C156.174 49.9562 156.31 50.8187 156.582 51.5969C156.863 52.375 157.285 52.9937 157.847 53.4531C158.41 53.9031 159.108 54.1281 159.943 54.1281ZM168.673 56.8V41.0781H172.259V43.7219H172.428C172.709 42.8031 173.201 42.1 173.904 41.6125C174.608 41.1156 175.409 40.8672 176.309 40.8672C176.506 40.8672 176.731 40.8766 176.984 40.8953C177.247 40.9141 177.462 40.9375 177.631 40.9656V44.3687C177.472 44.3125 177.223 44.2656 176.886 44.2281C176.548 44.1906 176.225 44.1719 175.915 44.1719C175.231 44.1719 174.622 44.3172 174.087 44.6078C173.553 44.8984 173.131 45.2969 172.822 45.8031C172.522 46.3094 172.372 46.9 172.372 47.575V56.8H168.673ZM184.491 57.1094C182.916 57.1094 181.557 56.7812 180.413 56.125C179.269 55.4594 178.388 54.5219 177.769 53.3125C177.16 52.1031 176.855 50.6781 176.855 49.0375C176.855 47.4156 177.16 45.9953 177.769 44.7766C178.379 43.5484 179.237 42.5922 180.343 41.9078C181.449 41.2234 182.752 40.8812 184.252 40.8812C185.218 40.8812 186.132 41.0359 186.994 41.3453C187.866 41.6547 188.635 42.1328 189.301 42.7797C189.976 43.4266 190.505 44.2516 190.89 45.2547C191.274 46.2484 191.466 47.4344 191.466 48.8125V49.9656H178.585V47.4766H189.624L187.894 48.2078C187.894 47.3172 187.758 46.5437 187.487 45.8875C187.215 45.2219 186.812 44.7016 186.277 44.3266C185.743 43.9516 185.077 43.7641 184.28 43.7641C183.483 43.7641 182.804 43.9516 182.241 44.3266C181.679 44.7016 181.252 45.2078 180.962 45.8453C180.671 46.4734 180.526 47.1766 180.526 47.9547V49.6844C180.526 50.6406 180.69 51.4609 181.018 52.1453C181.355 52.8203 181.824 53.3359 182.424 53.6922C183.033 54.0484 183.741 54.2266 184.548 54.2266C185.073 54.2266 185.551 54.1516 185.982 54.0016C186.423 53.8516 186.798 53.6266 187.107 53.3266C187.426 53.0172 187.669 52.6375 187.838 52.1875L191.298 52.5953C191.073 53.5047 190.655 54.3016 190.046 54.9859C189.446 55.6609 188.673 56.1859 187.726 56.5609C186.788 56.9266 185.71 57.1094 184.491 57.1094Z" fill="white"/>
</svg>
