<svg width="29" height="29" viewBox="0 0 29 29" fill="none" xmlns="http://www.w3.org/2000/svg">
<path d="M18.4209 1.2151C20.6778 1.46584 22.7089 2.55773 24.3156 4.16247C25.9224 5.76721 27.0094 7.80053 27.263 10.0572" stroke="#475F83" stroke-width="2.43" stroke-linecap="round" stroke-linejoin="round"/>
<path d="M17.6836 6.37297C18.77 6.58492 19.8483 7.06401 20.631 7.84665C21.4136 8.6293 21.8927 9.70768 22.1046 10.794" stroke="#475F83" stroke-width="2.43" stroke-linecap="round" stroke-linejoin="round"/>
<path fill-rule="evenodd" clip-rule="evenodd" d="M8.40071 20.0767C-1.76474 9.91012 -0.31923 5.25465 0.752388 3.75446C0.890045 3.51198 4.28321 -1.56742 7.92044 1.41264C16.9485 8.84793 5.89473 8.58348 13.1002 15.3791C20.3056 22.1747 19.6315 11.5308 27.0655 20.557C30.0457 24.1957 24.9661 27.5887 24.7252 27.7249C23.2249 28.798 18.5677 30.2434 8.40071 20.0767Z" fill="#475F83"/>
</svg>
