<svg width="213" height="76" viewBox="0 0 213 76" fill="none" xmlns="http://www.w3.org/2000/svg">
<rect x="0.9" y="0.9" width="210.6" height="74.2" rx="9.9" fill="black"/>
<rect x="0.9" y="0.9" width="210.6" height="74.2" rx="9.9" stroke="#A6A6A6" stroke-width="1.8"/>
<path d="M32.0489 37.031L14.5615 56.0106C14.5632 56.014 14.5632 56.019 14.5648 56.0224C15.1019 58.0833 16.9415 59.6 19.126 59.6C19.9997 59.6 20.8193 59.3581 21.5223 58.9348L21.5782 58.9013L41.2615 47.2867L32.0489 37.031Z" fill="#EA4335"/>
<path d="M49.7394 33.7992L49.723 33.7874L41.2248 28.7502L31.6509 37.4624L41.2593 47.2848L49.7115 42.298C51.193 41.4784 52.1998 39.881 52.1998 38.0402C52.1998 36.2094 51.2078 34.6205 49.7394 33.7992Z" fill="#FBBC04"/>
<path d="M14.5609 19.988C14.4557 20.3844 14.3999 20.8009 14.3999 21.2309V54.7694C14.3999 55.1994 14.4557 55.616 14.5625 56.0107L32.6494 37.5164L14.5609 19.988Z" fill="#4285F4"/>
<path d="M32.1777 37.9999L41.2277 28.7469L21.5673 17.0904C20.8529 16.652 20.0185 16.4 19.1266 16.4C16.9421 16.4 15.0993 17.9201 14.5622 19.9827C14.5622 19.9843 14.5605 19.986 14.5605 19.9877L32.1777 37.9999Z" fill="#34A853"/>
<path d="M71.2866 28.9758C70.1265 28.9758 69.1069 28.7033 68.228 28.1584C67.355 27.6135 66.6724 26.84 66.1802 25.8381C65.6938 24.8303 65.4507 23.6379 65.4507 22.2609C65.4507 20.8781 65.6938 19.6828 66.1802 18.675C66.6724 17.6672 67.3491 16.8908 68.2104 16.3459C69.0718 15.801 70.062 15.5285 71.1812 15.5285C71.8726 15.5285 72.5171 15.631 73.1147 15.8361C73.7124 16.0412 74.2456 16.3342 74.7144 16.715C75.1831 17.0959 75.5728 17.5471 75.8833 18.0685C76.1997 18.59 76.4194 19.1672 76.5425 19.8H74.9077C74.7671 19.3664 74.5825 18.9797 74.354 18.6398C74.1313 18.2941 73.8618 18.0012 73.5454 17.7609C73.229 17.5148 72.8745 17.3273 72.4819 17.1984C72.0894 17.0695 71.6558 17.0051 71.1812 17.0051C70.4077 17.0051 69.7017 17.2072 69.063 17.6115C68.4302 18.0099 67.9233 18.6017 67.5425 19.3869C67.1675 20.1662 66.98 21.1242 66.98 22.2609C66.98 23.3918 67.1704 24.3469 67.5513 25.1262C67.9321 25.9055 68.4478 26.4973 69.0981 26.9016C69.7485 27.3 70.478 27.4992 71.2866 27.4992C72.0366 27.4992 72.6958 27.3381 73.2642 27.0158C73.8325 26.6935 74.2778 26.2394 74.6001 25.6535C74.9224 25.0617 75.0835 24.3644 75.0835 23.5617L75.5757 23.6672H71.6382V22.2609H76.6304V23.6672C76.6304 24.7453 76.4019 25.6828 75.9448 26.4797C75.4878 27.2707 74.855 27.8859 74.0464 28.3254C73.2437 28.759 72.3237 28.9758 71.2866 28.9758ZM78.4937 28.8V15.7043H86.4038V17.1105H80.0757V21.4875H85.9819V22.8937H80.0757V27.3937H86.4917V28.8H78.4937ZM87.687 17.1105V15.7043H97.5132V17.1105H93.3999V28.8H91.8179V17.1105H87.687ZM104.914 15.7043V28.8H103.332V15.7043H104.914ZM106.513 17.1105V15.7043H116.339V17.1105H112.226V28.8H110.644V17.1105H106.513ZM127.44 28.9758C126.327 28.9758 125.333 28.7033 124.46 28.1584C123.587 27.6135 122.899 26.84 122.395 25.8381C121.897 24.8303 121.648 23.6379 121.648 22.2609C121.648 20.8781 121.897 19.6828 122.395 18.675C122.899 17.6672 123.587 16.8908 124.46 16.3459C125.333 15.801 126.327 15.5285 127.44 15.5285C128.559 15.5285 129.552 15.801 130.419 16.3459C131.287 16.8908 131.969 17.6672 132.467 18.675C132.965 19.6828 133.214 20.8781 133.214 22.2609C133.214 23.6379 132.965 24.8303 132.467 25.8381C131.969 26.84 131.287 27.6135 130.419 28.1584C129.552 28.7033 128.559 28.9758 127.44 28.9758ZM127.44 27.4992C128.231 27.4992 128.946 27.3 129.584 26.9016C130.229 26.4973 130.739 25.9055 131.114 25.1262C131.495 24.3469 131.685 23.3918 131.685 22.2609C131.685 21.1242 131.495 20.1662 131.114 19.3869C130.739 18.6017 130.229 18.0099 129.584 17.6115C128.946 17.2072 128.231 17.0051 127.44 17.0051C126.649 17.0051 125.931 17.2072 125.287 17.6115C124.642 18.0099 124.129 18.6017 123.749 19.3869C123.368 20.1662 123.177 21.1242 123.177 22.2609C123.177 23.3918 123.368 24.3469 123.749 25.1262C124.129 25.9055 124.642 26.4973 125.287 26.9016C125.931 27.3 126.649 27.4992 127.44 27.4992ZM145.431 15.7043V28.8H143.867L136.748 18.5168H136.607V28.8H135.025V15.7043H136.554L143.726 26.0051H143.849V15.7043H145.431Z" fill="white"/>
<path d="M168.333 58.7374H171.265V38.9167H168.333V58.7374ZM194.74 46.0563L191.379 54.6499H191.279L187.791 46.0563H184.633L189.863 58.0667L186.882 64.7481H189.938L198 46.0563H194.74ZM178.114 56.4859C177.152 56.4859 175.813 56.0023 175.813 54.8021C175.813 53.2737 177.48 52.687 178.921 52.687C180.21 52.687 180.818 52.9676 181.6 53.3498C181.372 55.1858 179.806 56.4859 178.114 56.4859ZM178.467 45.6235C176.344 45.6235 174.145 46.5669 173.237 48.6582L175.839 49.7538C176.395 48.6582 177.43 48.2998 178.517 48.2998C180.034 48.2998 181.575 49.2179 181.6 50.851V51.0539C181.069 50.7479 179.933 50.2897 178.543 50.2897C175.738 50.2897 172.882 51.8451 172.882 54.7514C172.882 57.404 175.182 59.1132 177.759 59.1132C179.73 59.1132 180.818 58.2205 181.5 57.1741H181.6V58.7041H184.43V51.1046C184.43 47.5864 181.828 45.6235 178.467 45.6235ZM160.348 48.4695H156.178V41.6755H160.348C162.54 41.6755 163.784 43.5068 163.784 45.0717C163.784 46.6081 162.54 48.4695 160.348 48.4695ZM160.273 38.9167H153.248V58.7374H156.178V51.2283H160.273C163.522 51.2283 166.716 48.8532 166.716 45.0717C166.716 41.2902 163.522 38.9167 160.273 38.9167ZM121.965 56.4891C119.94 56.4891 118.245 54.7783 118.245 52.4286C118.245 50.0534 119.94 48.3157 121.965 48.3157C123.965 48.3157 125.533 50.0534 125.533 52.4286C125.533 54.7783 123.965 56.4891 121.965 56.4891ZM125.332 47.1662H125.23C124.572 46.375 123.307 45.6599 121.712 45.6599C118.37 45.6599 115.308 48.6217 115.308 52.4286C115.308 56.2085 118.37 59.1465 121.712 59.1465C123.307 59.1465 124.572 58.4314 125.23 57.6132H125.332V58.5852C125.332 61.1648 123.965 62.5442 121.763 62.5442C119.965 62.5442 118.851 61.2409 118.395 60.1422L115.839 61.2156C116.573 63.0041 118.523 65.2 121.763 65.2C125.205 65.2 128.116 63.1563 128.116 58.1761V46.0674H125.332V47.1662ZM130.142 58.7374H133.078V38.9151H130.142V58.7374ZM137.405 52.1987C137.33 49.5936 139.406 48.265 140.898 48.265C142.064 48.265 143.051 48.8516 143.379 49.6951L137.405 52.1987ZM146.518 49.9504C145.962 48.4441 144.265 45.6599 140.798 45.6599C137.355 45.6599 134.496 48.3918 134.496 52.4032C134.496 56.1831 137.33 59.1465 141.126 59.1465C144.19 59.1465 145.962 57.2565 146.696 56.1577L144.418 54.6245C143.659 55.7487 142.62 56.4891 141.126 56.4891C139.633 56.4891 138.57 55.7994 137.886 54.4469L146.822 50.7162L146.518 49.9504ZM75.3305 47.729V50.5893H82.1133C81.9107 52.1987 81.3796 53.3735 80.5704 54.1901C79.5821 55.1874 78.0376 56.2862 75.3305 56.2862C71.1527 56.2862 67.8877 52.8884 67.8877 48.674C67.8877 44.4581 71.1527 41.0619 75.3305 41.0619C77.5836 41.0619 79.2286 41.9561 80.4432 43.1056L82.4433 41.0873C80.7464 39.4526 78.4949 38.2 75.3305 38.2C69.6097 38.2 64.8003 42.9011 64.8003 48.674C64.8003 54.4469 69.6097 59.1465 75.3305 59.1465C78.4179 59.1465 80.7464 58.1238 82.569 56.2085C84.4434 54.3185 85.0248 51.6628 85.0248 49.5159C85.0248 48.8516 84.9745 48.2396 84.8724 47.729H75.3305ZM92.7378 56.4891C90.7125 56.4891 88.9653 54.8037 88.9653 52.4032C88.9653 49.9757 90.7125 48.3157 92.7378 48.3157C94.7615 48.3157 96.5087 49.9757 96.5087 52.4032C96.5087 54.8037 94.7615 56.4891 92.7378 56.4891ZM92.7378 45.6599C89.0408 45.6599 86.0288 48.4949 86.0288 52.4032C86.0288 56.2862 89.0408 59.1465 92.7378 59.1465C96.4332 59.1465 99.4452 56.2862 99.4452 52.4032C99.4452 48.4949 96.4332 45.6599 92.7378 45.6599ZM107.37 56.4891C105.345 56.4891 103.598 54.8037 103.598 52.4032C103.598 49.9757 105.345 48.3157 107.37 48.3157C109.396 48.3157 111.141 49.9757 111.141 52.4032C111.141 54.8037 109.396 56.4891 107.37 56.4891ZM107.37 45.6599C103.675 45.6599 100.663 48.4949 100.663 52.4032C100.663 56.2862 103.675 59.1465 107.37 59.1465C111.066 59.1465 114.078 56.2862 114.078 52.4032C114.078 48.4949 111.066 45.6599 107.37 45.6599Z" fill="white"/>
</svg>
