<svg width="52" height="68" viewBox="0 0 52 68" fill="none" xmlns="http://www.w3.org/2000/svg">
<rect width="52" height="68" rx="16" fill="#F0F0F0"/>
<path d="M24.4444 20H27.5556C28.4147 20 29.1111 20.6965 29.1111 21.5556V22.4403C29.1111 23.1058 29.5577 23.6839 30.1723 23.9391C30.7872 24.1944 31.5031 24.0971 31.9738 23.6264L32.5996 23.0005C33.207 22.393 34.192 22.393 34.7995 23.0005L36.9993 25.2004C37.6069 25.8079 37.6068 26.7928 36.9993 27.4003L36.3737 28.026C35.9028 28.4968 35.8056 29.2127 36.0609 29.8276C36.316 30.4422 36.8942 30.8889 37.5598 30.8889H38.4444C39.3036 30.8889 40 31.5853 40 32.4444V35.5556C40 36.4147 39.3036 37.1111 38.4444 37.1111H37.5596C36.8942 37.1111 36.3161 37.5577 36.0609 38.1723C35.8056 38.7872 35.9028 39.5031 36.3737 39.9738L36.9993 40.5996C37.6069 41.207 37.6069 42.192 36.9993 42.7995L34.7995 44.9993C34.192 45.6069 33.207 45.6069 32.5996 44.9993L31.9738 44.3737C31.5031 43.9028 30.7872 43.8056 30.1723 44.0609C29.5577 44.3161 29.1111 44.8942 29.1111 45.5596V46.4444C29.1111 47.3036 28.4147 48 27.5556 48H24.4444C23.5853 48 22.8889 47.3036 22.8889 46.4444V45.5598C22.8889 44.8942 22.4422 44.316 21.8276 44.0609C21.2127 43.8056 20.4968 43.9028 20.026 44.3737L19.4003 44.9993C18.7928 45.6069 17.8079 45.6069 17.2004 44.9993L15.0005 42.7995C14.393 42.192 14.393 41.207 15.0005 40.5996L15.6264 39.9738C16.0971 39.5031 16.1944 38.7872 15.9391 38.1723C15.6839 37.5577 15.1058 37.1111 14.4403 37.1111H13.5556C12.6965 37.1111 12 36.4147 12 35.5556V32.4444C12 31.5853 12.6965 30.8889 13.5556 30.8889H14.4403C15.1058 30.8889 15.6839 30.4423 15.9391 29.8276C16.1944 29.2128 16.0971 28.4969 15.6264 28.0261L15.0005 27.4003C14.393 26.7928 14.393 25.8079 15.0005 25.2004L17.2004 23.0005C17.8079 22.3931 18.7928 22.3931 19.4003 23.0005L20.0261 23.6264C20.4969 24.0971 21.2128 24.1944 21.8276 23.9391C22.4423 23.6839 22.8889 23.1058 22.8889 22.4403V21.5556C22.8889 20.6965 23.5853 20 24.4444 20Z" fill="#475F83"/>
<path d="M29.1109 34C29.1109 35.7183 27.718 37.1111 25.9998 37.1111C24.2815 37.1111 22.8887 35.7183 22.8887 34C22.8887 32.2817 24.2815 30.8889 25.9998 30.8889C27.718 30.8889 29.1109 32.2817 29.1109 34Z" fill="#F0F0F0"/>
</svg>
