<svg width="39" height="39" viewBox="0 0 39 39" fill="none" xmlns="http://www.w3.org/2000/svg">
<path d="M1.5 37.5C5.5 37.5 11.5 37.224 11.5 32.5V26.5C11.5 21.6022 5.5 21.5 1.5 21.5" fill="#3A3A3A"/>
<path d="M1.5 37.5C5.5 37.5 11.5 37.224 11.5 32.5V26.5C11.5 21.6022 5.5 21.5 1.5 21.5" stroke="#3A3A3A" stroke-width="3" stroke-linecap="round" stroke-linejoin="round"/>
<path d="M37.5 37.5C33.5 37.5 27.5 37.224 27.5 32.5V26.5C27.5 21.776 33.5 21.5 37.5 21.5" fill="#3A3A3A"/>
<path d="M37.5 37.5C33.5 37.5 27.5 37.224 27.5 32.5V26.5C27.5 21.776 33.5 21.5 37.5 21.5" stroke="#3A3A3A" stroke-width="3" stroke-linecap="round" stroke-linejoin="round"/>
<path d="M1.5 21.5V37.5V19.5C1.5 9.55888 9.55888 1.5 19.5 1.5C29.4412 1.5 37.5 9.55888 37.5 19.5V37.5V21.5" stroke="#3A3A3A" stroke-width="3" stroke-linecap="round" stroke-linejoin="round"/>
</svg>
